ffmpeg started on 2016-12-08 at 23:15:20
Report written to "Output/x264/results/ffmpeg/sintelveryslow11000k.log"
Command line:
Tools/ffmpeg/ffmpeg -benchmark -y -i Input/y4m/sintel.y4m -c:v libx264 -preset veryslow -b:v 11000k -an Output/x264/encoded/sintelveryslow11000k.mkv
ffmpeg version N-82227-gdb23fde Copyright (c) 2000-2016 the FFmpeg developers
  built with gcc 5.4.0 (Ubuntu 5.4.0-6ubuntu1~16.04.2) 20160609
  configuration: --prefix=/home/jaroslav/ffmpeg_build --pkg-config-flags=--static --extra-cflags=-I/home/jaroslav/ffmpeg_build/include --extra-ldflags=-L/home/jaroslav/ffmpeg_build/lib --bindir=/home/jaroslav/bin --enable-gpl --enable-libass --enable-libfdk-aac --enable-libfreetype --enable-libmp3lame --enable-libopus --enable-libtheora --enable-libvorbis --enable-libvpx --enable-libx264 --enable-libx265 --enable-nvenc --enable-libmfx --enable-libxvid --enable-libgsm --enable-libopencore-amrnb --enable-version3 --enable-nonfree
  libavutil      55. 35.100 / 55. 35.100
  libavcodec     57. 66.101 / 57. 66.101
  libavformat    57. 57.100 / 57. 57.100
  libavdevice    57.  2.100 / 57.  2.100
  libavfilter     6. 66.100 /  6. 66.100
  libswscale      4.  3.100 /  4.  3.100
  libswresample   2.  4.100 /  2.  4.100
  libpostproc    54.  2.100 / 54.  2.100
Input #0, yuv4mpegpipe, from 'Input/y4m/sintel.y4m':
  Duration: 00:00:20.83, start: 0.000000, bitrate: 2057307 kb/s
    Stream #0:0: Video: rawvideo (I420 / 0x30323449), yuv420p(progressive), 4096x1744, SAR 1:1 DAR 256:109, 24 fps, 24 tbr, 24 tbn, 24 tbc
[libx264 @ 0x3b431c0] using SAR=1/1
[libx264 @ 0x3b431c0] DPB size (16 frames, 446464 mbs) > level limit (6 frames, 184320 mbs)
[libx264 @ 0x3b431c0] using cpu capabilities: MMX2 SSE2Fast SSSE3 SSE4.2 AVX FMA3 AVX2 LZCNT BMI2
[libx264 @ 0x3b431c0] profile High, level 5.2
[libx264 @ 0x3b431c0] 264 - core 148 - H.264/MPEG-4 AVC codec - Copyleft 2003-2016 - http://www.videolan.org/x264.html - options: cabac=1 ref=16 deblock=1:0:0 analyse=0x3:0x133 me=umh subme=10 psy=1 psy_rd=1.00:0.00 mixed_ref=1 me_range=24 chroma_me=1 trellis=2 8x8dct=1 cqm=0 deadzone=21,11 fast_pskip=1 chroma_qp_offset=-2 threads=6 lookahead_threads=1 sliced_threads=0 nr=0 decimate=1 interlaced=0 bluray_compat=0 constrained_intra=0 bframes=8 b_pyramid=2 b_adapt=2 b_bias=0 direct=3 weightb=1 open_gop=0 weightp=2 keyint=250 keyint_min=24 scenecut=40 intra_refresh=0 rc_lookahead=60 rc=abr mbtree=1 bitrate=11000 ratetol=1.0 qcomp=0.60 qpmin=0 qpmax=69 qpstep=4 ip_ratio=1.40 aq=1:1.00
Output #0, matroska, to 'Output/x264/encoded/sintelveryslow11000k.mkv':
  Metadata:
    encoder         : Lavf57.57.100
    Stream #0:0: Video: h264 (libx264) (H264 / 0x34363248), yuv420p, 4096x1744 [SAR 1:1 DAR 256:109], q=-1--1, 11000 kb/s, 24 fps, 1k tbn, 24 tbc
    Metadata:
      encoder         : Lavc57.66.101 libx264
    Side data:
      cpb: bitrate max/min/avg: 0/0/11000000 buffer size: 0 vbv_delay: -1
Stream mapping:
  Stream #0:0 -> #0:0 (rawvideo (native) -> h264 (libx264))
Press [q] to stop, [?] for help
frame=   11 fps=0.0 q=0.0 size=       0kB time=00:00:00.00 bitrate=N/A speed=   0x    frame=   19 fps= 18 q=0.0 size=       0kB time=00:00:00.00 bitrate=N/A speed=   0x    frame=   27 fps= 17 q=0.0 size=       0kB time=00:00:00.00 bitrate=N/A speed=   0x    frame=   35 fps= 17 q=0.0 size=       0kB time=00:00:00.00 bitrate=N/A speed=   0x    frame=   43 fps= 17 q=0.0 size=       0kB time=00:00:00.00 bitrate=N/A speed=   0x    frame=   51 fps= 16 q=0.0 size=       0kB time=00:00:00.00 bitrate=N/A speed=   0x    frame=   59 fps= 16 q=0.0 size=       0kB time=00:00:00.00 bitrate=N/A speed=   0x    frame=   67 fps= 16 q=0.0 size=       0kB time=00:00:00.00 bitrate=N/A speed=   0x    frame=   72 fps=3.3 q=0.0 size=       0kB time=00:00:00.00 bitrate=N/A speed=   0x    frame=   76 fps=3.2 q=24.0 size=       1kB time=-00:00:00.08 bitrate=N/A speed=N/A    frame=   78 fps=3.1 q=33.0 size=       1kB time=00:00:00.00 bitrate=5888.0kbits/s speed=3.96e-05x    frame=   79 fps=3.0 q=29.0 size=       1kB time=00:00:00.04 bitrate= 136.9kbits/s speed=0.00165x    frame=   80 fps=3.0 q=40.0 size=       1kB time=00:00:00.08 bitrate=  70.1kbits/s speed=0.0031x    frame=   81 fps=2.9 q=35.0 size=       1kB time=00:00:00.12 bitrate=  46.7kbits/s speed=0.00443x    frame=   82 fps=2.7 q=38.0 size=       1kB time=00:00:00.16 bitrate=  35.0kbits/s speed=0.00562x    frame=   83 fps=2.7 q=41.0 size=       1kB time=00:00:00.20 bitrate=  28.2kbits/s speed=0.00685x    frame=   87 fps=2.7 q=41.0 size=       1kB time=00:00:00.37 bitrate=  15.7kbits/s speed=0.0118x    frame=   88 fps=2.7 q=41.0 size=       1kB time=00:00:00.41 bitrate=  14.1kbits/s speed=0.0128x    frame=   89 fps=2.6 q=40.0 size=       1kB time=00:00:00.45 bitrate=  12.8kbits/s speed=0.0136x    frame=   90 fps=2.6 q=40.0 size=       1kB time=00:00:00.50 bitrate=  11.8kbits/s speed=0.0144x    frame=   91 fps=2.6 q=40.0 size=       1kB time=00:00:00.54 bitrate=  10.8kbits/s speed=0.0153x    frame=   92 fps=2.5 q=40.0 size=       1kB time=00:00:00.58 bitrate=  10.1kbits/s speed=0.016x    frame=   93 fps=2.4 q=40.0 size=       1kB time=00:00:00.62 bitrate=   9.4kbits/s speed=0.0164x    frame=   95 fps=2.4 q=40.0 size=       1kB time=00:00:00.70 bitrate=   8.3kbits/s speed=0.0182x    frame=   96 fps=2.3 q=40.0 size=       1kB time=00:00:00.75 bitrate=   7.8kbits/s speed=0.0182x    frame=   97 fps=2.3 q=40.0 size=       1kB time=00:00:00.79 bitrate=   7.4kbits/s speed=0.0187x    frame=   98 fps=2.2 q=40.0 size=       1kB time=00:00:00.83 bitrate=   7.1kbits/s speed=0.0191x    frame=   99 fps=2.2 q=40.0 size=       1kB time=00:00:00.87 bitrate=   6.7kbits/s speed=0.0195x    frame=  100 fps=2.2 q=40.0 size=       1kB time=00:00:00.91 bitrate=   6.4kbits/s speed=0.0199x    frame=  101 fps=2.1 q=40.0 size=       1kB time=00:00:00.95 bitrate=   6.1kbits/s speed=0.0202x    frame=  102 fps=2.1 q=39.0 size=       1kB time=00:00:01.00 bitrate=   5.9kbits/s speed=0.0208x    frame=  104 fps=2.1 q=39.0 size=       1kB time=00:00:01.08 bitrate=   5.4kbits/s speed=0.022x    frame=  106 fps=2.1 q=39.0 size=       1kB time=00:00:01.16 bitrate=   5.0kbits/s speed=0.0226x    frame=  107 fps=2.0 q=39.0 size=       1kB time=00:00:01.20 bitrate=   4.9kbits/s speed=0.0224x    frame=  108 fps=2.0 q=39.0 size=       1kB time=00:00:01.25 bitrate=   4.7kbits/s speed=0.0229x    frame=  109 fps=2.0 q=39.0 size=       1kB time=00:00:01.29 bitrate=   4.6kbits/s speed=0.0233x    frame=  110 fps=1.9 q=39.0 size=       1kB time=00:00:01.33 bitrate=   4.4kbits/s speed=0.0235x    frame=  111 fps=1.9 q=39.0 size=       1kB time=00:00:01.37 bitrate=   4.3kbits/s speed=0.0237x    frame=  112 fps=1.9 q=38.0 size=       1kB time=00:00:01.41 bitrate=   4.2kbits/s speed=0.0241x    frame=  113 fps=1.9 q=38.0 size=       1kB time=00:00:01.45 bitrate=   4.0kbits/s speed=0.0243x    frame=  114 fps=1.9 q=38.0 size=       1kB time=00:00:01.50 bitrate=   3.9kbits/s speed=0.0245x    frame=  115 fps=1.8 q=38.0 size=       1kB time=00:00:01.54 bitrate=   3.8kbits/s speed=0.0247x    frame=  116 fps=1.8 q=38.0 size=       1kB time=00:00:01.58 bitrate=   3.7kbits/s speed=0.0251x    frame=  117 fps=1.8 q=38.0 size=       1kB time=00:00:01.62 bitrate=   3.6kbits/s speed=0.0253x    frame=  118 fps=1.8 q=38.0 size=       1kB time=00:00:01.66 bitrate=   3.5kbits/s speed=0.0257x    frame=  119 fps=1.8 q=38.0 size=       1kB time=00:00:01.70 bitrate=   3.4kbits/s speed=0.026x    frame=  120 fps=1.8 q=38.0 size=       1kB time=00:00:01.75 bitrate=   3.4kbits/s speed=0.0263x    frame=  121 fps=1.8 q=38.0 size=       1kB time=00:00:01.79 bitrate=   3.3kbits/s speed=0.0266x    frame=  122 fps=1.8 q=37.0 size=       1kB time=00:00:01.83 bitrate=   3.2kbits/s speed=0.0269x    frame=  123 fps=1.8 q=37.0 size=       1kB time=00:00:01.87 bitrate=   3.1kbits/s speed=0.0271x    frame=  124 fps=1.8 q=37.0 size=       1kB time=00:00:01.91 bitrate=   3.1kbits/s speed=0.0272x    frame=  126 fps=1.7 q=37.0 size=       1kB time=00:00:02.00 bitrate=   2.9kbits/s speed=0.0276x    frame=  127 fps=1.7 q=37.0 size=       1kB time=00:00:02.04 bitrate=   2.9kbits/s speed=0.0277x    frame=  128 fps=1.7 q=37.0 size=       1kB time=00:00:02.08 bitrate=   2.8kbits/s speed=0.0279x    frame=  129 fps=1.7 q=37.0 size=       1kB time=00:00:02.12 bitrate=   2.8kbits/s speed=0.0278x    frame=  130 fps=1.7 q=37.0 size=       1kB time=00:00:02.16 bitrate=   2.7kbits/s speed=0.0279x    frame=  131 fps=1.7 q=37.0 size=       1kB time=00:00:02.20 bitrate=   2.7kbits/s speed=0.0281x    frame=  132 fps=1.7 q=37.0 size=       1kB time=00:00:02.25 bitrate=   2.6kbits/s speed=0.0283x    frame=  133 fps=1.6 q=37.0 size=       1kB time=00:00:02.29 bitrate=   2.6kbits/s speed=0.0281x    frame=  134 fps=1.6 q=37.0 size=       1kB time=00:00:02.33 bitrate=   2.5kbits/s speed=0.0282x    frame=  135 fps=1.6 q=37.0 size=       1kB time=00:00:02.37 bitrate=   2.5kbits/s speed=0.0283x    frame=  136 fps=1.6 q=37.0 size=       1kB time=00:00:02.41 bitrate=   2.4kbits/s speed=0.0285x    frame=  137 fps=1.6 q=37.0 size=       1kB time=00:00:02.45 bitrate=   2.4kbits/s speed=0.0284x    frame=  138 fps=1.6 q=37.0 size=       1kB time=00:00:02.50 bitrate=   2.4kbits/s speed=0.0286x    frame=  139 fps=1.6 q=37.0 size=       1kB time=00:00:02.54 bitrate=   2.3kbits/s speed=0.0285x    frame=  140 fps=1.5 q=37.0 size=       1kB time=00:00:02.58 bitrate=   2.3kbits/s speed=0.0286x    frame=  141 fps=1.5 q=37.0 size=       1kB time=00:00:02.62 bitrate=   2.2kbits/s speed=0.0288x    frame=  142 fps=1.5 q=37.0 size=       1kB time=00:00:02.66 bitrate=   2.2kbits/s speed=0.0285x    frame=  143 fps=1.5 q=37.0 size=       1kB time=00:00:02.70 bitrate=   2.2kbits/s speed=0.0287x    frame=  144 fps=1.5 q=36.0 size=       1kB time=00:00:02.75 bitrate=   2.1kbits/s speed=0.0286x    frame=  145 fps=1.5 q=36.0 size=       1kB time=00:00:02.79 bitrate=   2.1kbits/s speed=0.0289x    frame=  146 fps=1.5 q=36.0 size=       1kB time=00:00:02.83 bitrate=   2.1kbits/s speed=0.0291x    frame=  147 fps=1.5 q=36.0 size=       1kB time=00:00:02.87 bitrate=   2.0kbits/s speed=0.0291x    frame=  148 fps=1.5 q=36.0 size=       1kB time=00:00:02.91 bitrate=   2.0kbits/s speed=0.0288x    frame=  149 fps=1.5 q=36.0 size=       1kB time=00:00:02.95 bitrate=   2.0kbits/s speed=0.0289x    frame=  150 fps=1.5 q=36.0 size=       1kB time=00:00:03.00 bitrate=   2.0kbits/s speed=0.0291x    frame=  151 fps=1.5 q=36.0 size=       1kB time=00:00:03.04 bitrate=   1.9kbits/s speed=0.0293x    frame=  152 fps=1.4 q=36.0 size=       1kB time=00:00:03.08 bitrate=   1.9kbits/s speed=0.0293x    frame=  153 fps=1.4 q=36.0 size=       1kB time=00:00:03.12 bitrate=   1.9kbits/s speed=0.0294x    frame=  154 fps=1.4 q=36.0 size=       1kB time=00:00:03.16 bitrate=   1.9kbits/s speed=0.0293x    frame=  155 fps=1.4 q=36.0 size=       1kB time=00:00:03.20 bitrate=   1.8kbits/s speed=0.0294x    frame=  156 fps=1.4 q=36.0 size=       1kB time=00:00:03.25 bitrate=   1.8kbits/s speed=0.0292x    frame=  157 fps=1.4 q=36.0 size=       1kB time=00:00:03.29 bitrate=   1.8kbits/s speed=0.0293x    frame=  158 fps=1.4 q=36.0 size=       1kB time=00:00:03.33 bitrate=   1.8kbits/s speed=0.0293x    frame=  159 fps=1.4 q=36.0 size=       1kB time=00:00:03.37 bitrate=   1.7kbits/s speed=0.0294x    frame=  160 fps=1.4 q=36.0 size=    5139kB time=00:00:03.41 bitrate=12316.3kbits/s speed=0.0295x    frame=  161 fps=1.4 q=36.0 size=    5139kB time=00:00:03.45 bitrate=12170.3kbits/s speed=0.0297x    frame=  162 fps=1.4 q=35.0 size=    5139kB time=00:00:03.50 bitrate=12024.3kbits/s speed=0.0296x    frame=  163 fps=1.4 q=35.0 size=    5139kB time=00:00:03.54 bitrate=11881.8kbits/s speed=0.0297x    frame=  164 fps=1.4 q=35.0 size=    5139kB time=00:00:03.58 bitrate=11745.8kbits/s speed=0.0297x    frame=  165 fps=1.4 q=35.0 size=    5139kB time=00:00:03.62 bitrate=11609.8kbits/s speed=0.0297x    frame=  166 fps=1.4 q=35.0 size=    5139kB time=00:00:03.66 bitrate=11476.9kbits/s speed=0.0298x    frame=  167 fps=1.3 q=35.0 size=    5139kB time=00:00:03.70 bitrate=11350.0kbits/s speed=0.0299x    frame=  168 fps=1.3 q=35.0 size=    5139kB time=00:00:03.75 bitrate=11222.9kbits/s speed=0.03x    frame=  169 fps=1.3 q=35.0 size=    5139kB time=00:00:03.79 bitrate=11098.6kbits/s speed=0.0302x    frame=  170 fps=1.3 q=35.0 size=    5139kB time=00:00:03.83 bitrate=10979.9kbits/s speed=0.0303x    frame=  171 fps=1.3 q=35.0 size=    5139kB time=00:00:03.87 bitrate=10861.0kbits/s speed=0.0303x    frame=  172 fps=1.3 q=35.0 size=    5139kB time=00:00:03.91 bitrate=10744.5kbits/s speed=0.03x    frame=  173 fps=1.3 q=35.0 size=    5139kB time=00:00:03.95 bitrate=10633.3kbits/s speed=0.0302x    frame=  175 fps=1.3 q=35.0 size=    5139kB time=00:00:04.04 bitrate=10412.3kbits/s speed=0.0307x    frame=  176 fps=1.3 q=35.0 size=    5139kB time=00:00:04.08 bitrate=10307.8kbits/s speed=0.0308x    frame=  177 fps=1.3 q=35.0 size=    5139kB time=00:00:04.12 bitrate=10202.9kbits/s speed=0.031x    frame=  178 fps=1.3 q=35.0 size=    5139kB time=00:00:04.16 bitrate=10100.1kbits/s speed=0.0305x    frame=  179 fps=1.3 q=35.0 size=    5139kB time=00:00:04.20 bitrate=10001.7kbits/s speed=0.0306x    frame=  181 fps=1.3 q=35.0 size=    5139kB time=00:00:04.29 bitrate=9806.0kbits/s speed=0.031x    frame=  182 fps=1.3 q=35.0 size=    5139kB time=00:00:04.33 bitrate=9713.2kbits/s speed=0.031x    frame=  183 fps=1.3 q=35.0 size=    5139kB time=00:00:04.37 bitrate=9620.0kbits/s speed=0.0312x    frame=  184 fps=1.3 q=35.0 size=    5139kB time=00:00:04.41 bitrate=9528.5kbits/s speed=0.0313x    frame=  185 fps=1.3 q=34.0 size=    5139kB time=00:00:04.45 bitrate=9440.9kbits/s speed=0.0312x    frame=  186 fps=1.3 q=34.0 size=    5139kB time=00:00:04.50 bitrate=9352.8kbits/s speed=0.0313x    frame=  187 fps=1.3 q=34.0 size=    5139kB time=00:00:04.54 bitrate=9266.4kbits/s speed=0.0314x    frame=  188 fps=1.3 q=34.0 size=    5139kB time=00:00:04.58 bitrate=9183.5kbits/s speed=0.0315x    frame=  189 fps=1.3 q=34.0 size=    5139kB time=00:00:04.62 bitrate=9100.1kbits/s speed=0.0316x    frame=  190 fps=1.3 q=34.0 size=    5139kB time=00:00:04.66 bitrate=9018.2kbits/s speed=0.0317x    frame=  191 fps=1.3 q=34.0 size=    5139kB time=00:00:04.70 bitrate=8939.7kbits/s speed=0.0319x    frame=  192 fps=1.3 q=34.0 size=    5139kB time=00:00:04.75 bitrate=8860.7kbits/s speed=0.0312x    frame=  193 fps=1.3 q=34.0 size=    5139kB time=00:00:04.79 bitrate=8783.0kbits/s speed=0.0314x    frame=  194 fps=1.3 q=34.0 size=    5139kB time=00:00:04.83 bitrate=8708.5kbits/s speed=0.0316x    frame=  196 fps=1.3 q=34.0 size=    5139kB time=00:00:04.91 bitrate=8559.8kbits/s speed=0.0319x    frame=  197 fps=1.3 q=34.0 size=    5139kB time=00:00:04.95 bitrate=8489.0kbits/s speed=0.032x    frame=  198 fps=1.3 q=34.0 size=    5139kB time=00:00:05.00 bitrate=8417.7kbits/s speed=0.0318x    frame=  199 fps=1.3 q=34.0 size=    5139kB time=00:00:05.04 bitrate=8347.6kbits/s speed=0.0317x    frame=  200 fps=1.3 q=34.0 size=    5139kB time=00:00:05.08 bitrate=8280.3kbits/s speed=0.0318x    frame=  201 fps=1.2 q=34.0 size=    5139kB time=00:00:05.12 bitrate=8212.5kbits/s speed=0.0319x    frame=  202 fps=1.2 q=34.0 size=    5139kB time=00:00:05.16 bitrate=8145.7kbits/s speed=0.0319x    frame=  203 fps=1.2 q=34.0 size=    5139kB time=00:00:05.20 bitrate=8081.6kbits/s speed=0.0319x    frame=  204 fps=1.2 q=34.0 size=    5139kB time=00:00:05.25 bitrate=8017.0kbits/s speed=0.032x    frame=  205 fps=1.2 q=34.0 size=    5139kB time=00:00:05.29 bitrate=7953.4kbits/s speed=0.032x    frame=  206 fps=1.2 q=34.0 size=    5139kB time=00:00:05.33 bitrate=7892.2kbits/s speed=0.0321x    frame=  207 fps=1.2 q=34.0 size=    5139kB time=00:00:05.37 bitrate=7830.6kbits/s speed=0.0322x    frame=  208 fps=1.2 q=34.0 size=    5139kB time=00:00:05.41 bitrate=7769.9kbits/s speed=0.0321x    frame=  209 fps=1.2 q=34.0 size=    5139kB time=00:00:05.45 bitrate=7711.5kbits/s speed=0.0322x    frame=  210 fps=1.2 q=34.0 size=    5139kB time=00:00:05.50 bitrate=7652.6kbits/s speed=0.0323x    frame=  211 fps=1.2 q=34.0 size=    5139kB time=00:00:05.54 bitrate=7594.6kbits/s speed=0.0324x    frame=  212 fps=1.2 q=34.0 size=    5139kB time=00:00:05.58 bitrate=7538.9kbits/s speed=0.0326x    frame=  213 fps=1.2 q=34.0 size=    5139kB time=00:00:05.62 bitrate=7482.6kbits/s speed=0.0326x    frame=  214 fps=1.2 q=34.0 size=    5139kB time=00:00:05.66 bitrate=7427.2kbits/s speed=0.0327x    frame=  215 fps=1.2 q=34.0 size=    5139kB time=00:00:05.70 bitrate=7373.8kbits/s speed=0.0326x    frame=  216 fps=1.2 q=34.0 size=    5139kB time=00:00:05.75 bitrate=7320.0kbits/s speed=0.0327x    frame=  217 fps=1.2 q=34.0 size=    5139kB time=00:00:05.79 bitrate=7266.9kbits/s speed=0.0329x    frame=  218 fps=1.2 q=34.0 size=    5139kB time=00:00:05.83 bitrate=7215.8kbits/s speed=0.033x    frame=  219 fps=1.2 q=34.0 size=    5139kB time=00:00:05.87 bitrate=7164.2kbits/s speed=0.0329x    frame=  220 fps=1.2 q=34.0 size=    5139kB time=00:00:05.91 bitrate=7113.4kbits/s speed=0.033x    frame=  221 fps=1.2 q=34.0 size=    5139kB time=00:00:05.95 bitrate=7064.5kbits/s speed=0.0331x    frame=  222 fps=1.2 q=34.0 size=    5139kB time=00:00:06.00 bitrate=7015.0kbits/s speed=0.033x    frame=  223 fps=1.2 q=34.0 size=    5139kB time=00:00:06.04 bitrate=6966.3kbits/s speed=0.0331x    frame=  224 fps=1.2 q=34.0 size=    5139kB time=00:00:06.08 bitrate=6919.3kbits/s speed=0.0332x    frame=  225 fps=1.2 q=34.0 size=    5139kB time=00:00:06.12 bitrate=6871.9kbits/s speed=0.0333x    frame=  226 fps=1.2 q=34.0 size=    5139kB time=00:00:06.16 bitrate=6825.1kbits/s speed=0.0333x    frame=  227 fps=1.2 q=34.0 size=    5139kB time=00:00:06.20 bitrate=6780.0kbits/s speed=0.0332x    frame=  228 fps=1.2 q=34.0 size=    5139kB time=00:00:06.25 bitrate=6734.5kbits/s speed=0.0333x    frame=  229 fps=1.2 q=34.0 size=    5139kB time=00:00:06.29 bitrate=6689.5kbits/s speed=0.0334x    frame=  230 fps=1.2 q=34.0 size=    5139kB time=00:00:06.33 bitrate=6646.2kbits/s speed=0.0335x    frame=  233 fps=1.2 q=34.0 size=    5139kB time=00:00:06.45 bitrate=6517.6kbits/s speed=0.0333x    frame=  234 fps=1.2 q=33.0 size=    5139kB time=00:00:06.50 bitrate=6475.5kbits/s speed=0.0334x    frame=  236 fps=1.2 q=33.0 size=    5139kB time=00:00:06.58 bitrate=6393.8kbits/s speed=0.0336x    frame=  237 fps=1.2 q=33.0 size=    5139kB time=00:00:06.62 bitrate=6353.3kbits/s speed=0.0337x    frame=  238 fps=1.2 q=33.0 size=    5139kB time=00:00:06.66 bitrate=6313.3kbits/s speed=0.0338x    frame=  239 fps=1.2 q=33.0 size=    5139kB time=00:00:06.70 bitrate=6274.7kbits/s speed=0.0336x    frame=  240 fps=1.2 q=33.0 size=    5139kB time=00:00:06.75 bitrate=6235.7kbits/s speed=0.0337x    frame=  241 fps=1.2 q=33.0 size=    5139kB time=00:00:06.79 bitrate=6197.1kbits/s speed=0.0337x    frame=  242 fps=1.2 q=33.0 size=    5139kB time=00:00:06.83 bitrate=6160.0kbits/s speed=0.0338x    frame=  243 fps=1.2 q=33.0 size=    5139kB time=00:00:06.87 bitrate=6122.3kbits/s speed=0.0338x    frame=  244 fps=1.2 q=33.0 size=    5139kB time=00:00:06.91 bitrate=6085.2kbits/s speed=0.0339x    frame=  245 fps=1.2 q=33.0 size=    5139kB time=00:00:06.95 bitrate=6049.3kbits/s speed=0.0339x    frame=  246 fps=1.2 q=33.0 size=    5139kB time=00:00:07.00 bitrate=6013.0kbits/s speed=0.0339x    frame=  247 fps=1.2 q=33.0 size=    5139kB time=00:00:07.04 bitrate=5977.2kbits/s speed=0.0339x    frame=  248 fps=1.2 q=33.0 size=    5139kB time=00:00:07.08 bitrate=5942.6kbits/s speed=0.034x    frame=  249 fps=1.2 q=33.0 size=    5139kB time=00:00:07.12 bitrate=5907.5kbits/s speed=0.0341x    frame=  250 fps=1.2 q=33.0 size=    5139kB time=00:00:07.16 bitrate=5872.9kbits/s speed=0.0342x    frame=  251 fps=1.2 q=33.0 size=    5139kB time=00:00:07.20 bitrate=5839.5kbits/s speed=0.0341x    frame=  252 fps=1.2 q=33.0 size=    5139kB time=00:00:07.25 bitrate=5805.7kbits/s speed=0.0341x    frame=  253 fps=1.2 q=33.0 size=    5139kB time=00:00:07.29 bitrate=5772.3kbits/s speed=0.0341x    frame=  255 fps=1.2 q=33.0 size=    5139kB time=00:00:07.37 bitrate=5707.3kbits/s speed=0.0343x    frame=  256 fps=1.2 q=33.0 size=    5139kB time=00:00:07.41 bitrate=5675.0kbits/s speed=0.0343x    frame=  257 fps=1.2 q=33.0 size=    5139kB time=00:00:07.45 bitrate=5643.8kbits/s speed=0.0344x    frame=  258 fps=1.2 q=33.0 size=    5139kB time=00:00:07.50 bitrate=5612.2kbits/s speed=0.0344x    frame=  259 fps=1.2 q=33.0 size=    5139kB time=00:00:07.54 bitrate=5580.9kbits/s speed=0.0345x    frame=  260 fps=1.2 q=33.0 size=    5139kB time=00:00:07.58 bitrate=5550.8kbits/s speed=0.0341x    frame=  261 fps=1.2 q=33.0 size=    5139kB time=00:00:07.62 bitrate=5520.2kbits/s speed=0.0342x    frame=  262 fps=1.2 q=33.0 size=    5139kB time=00:00:07.66 bitrate=5490.0kbits/s speed=0.0343x    frame=  265 fps=1.2 q=33.0 size=    5139kB time=00:00:07.79 bitrate=5401.9kbits/s speed=0.0347x    frame=  266 fps=1.2 q=33.0 size=    5139kB time=00:00:07.83 bitrate=5373.6kbits/s speed=0.0347x    frame=  267 fps=1.2 q=33.0 size=    5139kB time=00:00:07.87 bitrate=5345.0kbits/s speed=0.0344x    frame=  268 fps=1.2 q=33.0 size=    5139kB time=00:00:07.91 bitrate=5316.6kbits/s speed=0.0345x    frame=  269 fps=1.2 q=33.0 size=    5139kB time=00:00:07.95 bitrate=5289.2kbits/s speed=0.0346x    frame=  271 fps=1.2 q=33.0 size=    5139kB time=00:00:08.04 bitrate=5234.0kbits/s speed=0.0348x    frame=  273 fps=1.2 q=33.0 size=    5139kB time=00:00:08.12 bitrate=5180.5kbits/s speed=0.0348x    frame=  274 fps=1.2 q=33.0 size=   10270kB time=00:00:08.16 bitrate=10300.5kbits/s speed=0.0347x    frame=  275 fps=1.2 q=33.0 size=   10270kB time=00:00:08.20 bitrate=10249.0kbits/s speed=0.0347x    frame=  276 fps=1.2 q=33.0 size=   10270kB time=00:00:08.25 bitrate=10196.8kbits/s speed=0.0347x    frame=  277 fps=1.2 q=33.0 size=   10270kB time=00:00:08.29 bitrate=10145.2kbits/s speed=0.0348x    frame=  278 fps=1.2 q=33.0 size=   10270kB time=00:00:08.33 bitrate=10095.3kbits/s speed=0.0348x    frame=  280 fps=1.2 q=32.0 size=   10270kB time=00:00:08.41 bitrate=9994.6kbits/s speed=0.035x    frame=  281 fps=1.2 q=32.0 size=   10270kB time=00:00:08.45 bitrate=9946.1kbits/s speed=0.0349x    frame=  282 fps=1.2 q=32.0 size=   10270kB time=00:00:08.50 bitrate=9897.0kbits/s speed=0.0349x    frame=  283 fps=1.2 q=32.0 size=   10270kB time=00:00:08.54 bitrate=9848.3kbits/s speed=0.035x    frame=  284 fps=1.2 q=32.0 size=   10270kB time=00:00:08.58 bitrate=9801.3kbits/s speed=0.0349x    frame=  285 fps=1.2 q=32.0 size=   10270kB time=00:00:08.62 bitrate=9753.6kbits/s speed=0.035x    frame=  287 fps=1.2 q=32.0 size=   10270kB time=00:00:08.70 bitrate=9660.6kbits/s speed=0.0352x    frame=  288 fps=1.2 q=32.0 size=   10270kB time=00:00:08.75 bitrate=9614.2kbits/s speed=0.0352x    frame=  289 fps=1.2 q=32.0 size=   10270kB time=00:00:08.79 bitrate=9568.3kbits/s speed=0.0352x    frame=  290 fps=1.2 q=32.0 size=   10270kB time=00:00:08.83 bitrate=9523.9kbits/s speed=0.0353x    frame=  291 fps=1.2 q=32.0 size=   10270kB time=00:00:08.87 bitrate=9478.8kbits/s speed=0.0353x    frame=  292 fps=1.2 q=32.0 size=   10270kB time=00:00:08.91 bitrate=9434.2kbits/s speed=0.0351x    frame=  294 fps=1.2 q=32.0 size=   10270kB time=00:00:09.00 bitrate=9347.2kbits/s speed=0.0353x    frame=  295 fps=1.2 q=32.0 size=   10270kB time=00:00:09.04 bitrate=9303.8kbits/s speed=0.0353x    frame=  296 fps=1.2 q=32.0 size=   10270kB time=00:00:09.08 bitrate=9261.8kbits/s speed=0.0354x    frame=  298 fps=1.1 q=32.0 size=   10270kB time=00:00:09.16 bitrate=9176.9kbits/s speed=0.0352x    frame=  299 fps=1.1 q=32.0 size=   10270kB time=00:00:09.20 bitrate=9136.1kbits/s speed=0.0353x    frame=  300 fps=1.1 q=32.0 size=   10270kB time=00:00:09.25 bitrate=9094.6kbits/s speed=0.0354x    frame=  302 fps=1.2 q=32.0 size=   10270kB time=00:00:09.33 bitrate=9013.7kbits/s speed=0.0356x    frame=  303 fps=1.1 q=32.0 size=   10270kB time=00:00:09.37 bitrate=8973.4kbits/s speed=0.0356x    frame=  304 fps=1.1 q=32.0 size=   10270kB time=00:00:09.41 bitrate=8933.3kbits/s speed=0.0356x    frame=  305 fps=1.1 q=32.0 size=   10270kB time=00:00:09.45 bitrate=8894.6kbits/s speed=0.0355x    frame=  309 fps=1.1 q=32.0 size=   10270kB time=00:00:09.62 bitrate=8740.3kbits/s speed=0.0356x    frame=  311 fps=1.1 q=32.0 size=   10270kB time=00:00:09.70 bitrate=8665.6kbits/s speed=0.0358x    frame=  312 fps=1.1 q=32.0 size=   10270kB time=00:00:09.75 bitrate=8628.3kbits/s speed=0.0358x    frame=  313 fps=1.1 q=32.0 size=   10270kB time=00:00:09.79 bitrate=8591.3kbits/s speed=0.0359x    frame=  315 fps=1.1 q=32.0 size=   10270kB time=00:00:09.87 bitrate=8519.1kbits/s speed=0.036x    frame=  316 fps=1.1 q=32.0 size=   10270kB time=00:00:09.91 bitrate=8483.0kbits/s speed=0.036x    frame=  317 fps=1.1 q=32.0 size=   10270kB time=00:00:09.95 bitrate=8448.1kbits/s speed=0.0361x    frame=  318 fps=1.1 q=32.0 size=   10270kB time=00:00:10.00 bitrate=8412.6kbits/s speed=0.0362x    frame=  320 fps=1.2 q=32.0 size=   10270kB time=00:00:10.08 bitrate=8343.3kbits/s speed=0.0363x    frame=  321 fps=1.1 q=29.0 size=   10270kB time=00:00:10.12 bitrate=8308.7kbits/s speed=0.0362x    frame=  322 fps=1.1 q=32.0 size=   10270kB time=00:00:10.16 bitrate=8274.4kbits/s speed=0.0363x    frame=  324 fps=1.1 q=32.0 size=   10270kB time=00:00:10.25 bitrate=8207.4kbits/s speed=0.0364x    frame=  326 fps=1.2 q=32.0 size=   12713kB time=00:00:10.33 bitrate=10077.5kbits/s speed=0.0366x    frame=  332 fps=1.2 q=32.0 size=   12713kB time=00:00:10.58 bitrate=9839.5kbits/s speed=0.0373x    frame=  335 fps=1.2 q=32.0 size=   12713kB time=00:00:10.70 bitrate=9724.6kbits/s speed=0.0376x    frame=  336 fps=1.2 q=29.0 size=   12713kB time=00:00:10.75 bitrate=9686.6kbits/s speed=0.0376x    frame=  340 fps=1.2 q=31.0 size=   12713kB time=00:00:10.91 bitrate=9538.5kbits/s speed=0.0381x    frame=  343 fps=1.2 q=31.0 size=   12713kB time=00:00:11.04 bitrate=9430.5kbits/s speed=0.0382x    frame=  345 fps=1.2 q=31.0 size=   12713kB time=00:00:11.12 bitrate=9360.1kbits/s speed=0.0384x    frame=  346 fps=1.2 q=31.0 size=   12713kB time=00:00:11.16 bitrate=9324.9kbits/s speed=0.0384x    frame=  347 fps=1.2 q=31.0 size=   12713kB time=00:00:11.20 bitrate=9290.8kbits/s speed=0.0384x    frame=  349 fps=1.2 q=31.0 size=   12713kB time=00:00:11.29 bitrate=9221.7kbits/s speed=0.0384x    frame=  350 fps=1.2 q=31.0 size=   12713kB time=00:00:11.33 bitrate=9188.4kbits/s speed=0.0384x    frame=  353 fps=1.2 q=31.0 size=   12713kB time=00:00:11.45 bitrate=9088.1kbits/s speed=0.0386x    frame=  354 fps=1.2 q=31.0 size=   12713kB time=00:00:11.50 bitrate=9055.0kbits/s speed=0.0386x    frame=  356 fps=1.2 q=31.0 size=   12713kB time=00:00:11.58 bitrate=8990.1kbits/s speed=0.0388x    frame=  357 fps=1.2 q=31.0 size=   12713kB time=00:00:11.62 bitrate=8957.6kbits/s speed=0.0387x    frame=  358 fps=1.2 q=31.0 size=   12713kB time=00:00:11.66 bitrate=8925.4kbits/s speed=0.0387x    frame=  360 fps=1.2 q=31.0 size=   12713kB time=00:00:11.75 bitrate=8862.3kbits/s speed=0.0387x    frame=  361 fps=1.2 q=31.0 size=   12713kB time=00:00:11.79 bitrate=8830.7kbits/s speed=0.0388x    frame=  362 fps=1.2 q=31.0 size=   12713kB time=00:00:11.83 bitrate=8800.2kbits/s speed=0.0389x    frame=  364 fps=1.2 q=31.0 size=   12713kB time=00:00:11.91 bitrate=8738.1kbits/s speed=0.0388x    frame=  366 fps=1.2 q=31.0 size=   12713kB time=00:00:12.00 bitrate=8677.7kbits/s speed=0.039x    frame=  368 fps=1.2 q=31.0 size=   12713kB time=00:00:12.08 bitrate=8618.1kbits/s speed=0.0391x    frame=  370 fps=1.2 q=31.0 size=   12713kB time=00:00:12.16 bitrate=8558.6kbits/s speed=0.0392x    frame=  372 fps=1.2 q=31.0 size=   12713kB time=00:00:12.25 bitrate=8500.6kbits/s speed=0.0392x    frame=  374 fps=1.2 q=31.0 size=   12713kB time=00:00:12.33 bitrate=8443.4kbits/s speed=0.0394x    frame=  376 fps=1.2 q=30.0 size=   12713kB time=00:00:12.41 bitrate=8386.3kbits/s speed=0.0395x    frame=  377 fps=1.2 q=31.0 size=   12713kB time=00:00:12.45 bitrate=8358.7kbits/s speed=0.0395x    frame=  379 fps=1.2 q=31.0 size=   12713kB time=00:00:12.54 bitrate=8302.7kbits/s speed=0.0397x    frame=  382 fps=1.2 q=30.0 size=   12713kB time=00:00:12.66 bitrate=8220.8kbits/s speed=0.0397x    frame=  385 fps=1.2 q=30.0 size=   12713kB time=00:00:12.79 bitrate=8140.5kbits/s speed=0.0401x    frame=  388 fps=1.2 q=30.0 size=   12713kB time=00:00:12.91 bitrate=8061.7kbits/s speed=0.04x    frame=  392 fps=1.2 q=30.0 size=   12713kB time=00:00:13.08 bitrate=7959.4kbits/s speed=0.0405x    frame=  393 fps=1.2 q=30.0 size=   12713kB time=00:00:13.12 bitrate=7933.9kbits/s speed=0.0404x    frame=  394 fps=1.2 q=30.0 size=   12713kB time=00:00:13.16 bitrate=7908.6kbits/s speed=0.0403x    frame=  399 fps=1.2 q=30.0 size=   12713kB time=00:00:13.37 bitrate=7785.7kbits/s speed=0.0407x    frame=  400 fps=1.2 q=30.0 size=   12713kB time=00:00:13.41 bitrate=7761.3kbits/s speed=0.0407x    frame=  404 fps=1.2 q=29.0 size=   12713kB time=00:00:13.58 bitrate=7666.4kbits/s speed=0.041x    frame=  405 fps=1.2 q=29.0 size=   12713kB time=00:00:13.62 bitrate=7642.8kbits/s speed=0.041x    frame=  406 fps=1.2 q=29.0 size=   12713kB time=00:00:13.66 bitrate=7619.3kbits/s speed=0.0411x    frame=  408 fps=1.2 q=29.0 size=   12713kB time=00:00:13.75 bitrate=7573.3kbits/s speed=0.041x    frame=  413 fps=1.2 q=29.0 size=   12713kB time=00:00:13.95 bitrate=7460.5kbits/s speed=0.0415x    frame=  414 fps=1.2 q=29.0 size=   12713kB time=00:00:14.00 bitrate=7438.1kbits/s speed=0.0413x    frame=  419 fps=1.2 q=29.0 size=   12713kB time=00:00:14.20 bitrate=7329.2kbits/s speed=0.0417x    frame=  420 fps=1.2 q=29.0 size=   12713kB time=00:00:14.25 bitrate=7307.6kbits/s speed=0.0417x    frame=  425 fps=1.2 q=29.0 size=   12713kB time=00:00:14.45 bitrate=7202.5kbits/s speed=0.042x    frame=  426 fps=1.2 q=29.0 size=   12713kB time=00:00:14.50 bitrate=7181.6kbits/s speed=0.0419x    frame=  430 fps=1.2 q=28.0 size=   12713kB time=00:00:14.66 bitrate=7099.9kbits/s speed=0.0422x    frame=  431 fps=1.2 q=28.0 size=   12713kB time=00:00:14.70 bitrate=7080.1kbits/s speed=0.0423x    frame=  432 fps=1.2 q=28.0 size=   12713kB time=00:00:14.75 bitrate=7059.9kbits/s speed=0.0422x    frame=  436 fps=1.2 q=28.0 size=   12713kB time=00:00:14.91 bitrate=6980.9kbits/s speed=0.0426x    frame=  437 fps=1.2 q=28.0 size=   12713kB time=00:00:14.95 bitrate=6961.8kbits/s speed=0.0426x    frame=  438 fps=1.2 q=28.0 size=   12713kB time=00:00:15.00 bitrate=6942.3kbits/s speed=0.0426x    frame=  439 fps=1.2 q=28.0 size=   12713kB time=00:00:15.04 bitrate=6922.9kbits/s speed=0.0422x    frame=  441 fps=1.2 q=28.0 size=   12713kB time=00:00:15.12 bitrate=6884.9kbits/s speed=0.0423x    frame=  442 fps=1.2 q=28.0 size=   12713kB time=00:00:15.16 bitrate=6865.8kbits/s speed=0.0424x    frame=  445 fps=1.2 q=28.0 size=   17133kB time=00:00:15.29 bitrate=9177.7kbits/s speed=0.0425x    frame=  446 fps=1.2 q=28.0 size=   17133kB time=00:00:15.33 bitrate=9153.2kbits/s speed=0.0423x    frame=  448 fps=1.2 q=28.0 size=   17133kB time=00:00:15.41 bitrate=9103.3kbits/s speed=0.0424x    frame=  449 fps=1.2 q=28.0 size=   17133kB time=00:00:15.45 bitrate=9079.2kbits/s speed=0.0424x    frame=  450 fps=1.2 q=28.0 size=   17133kB time=00:00:15.50 bitrate=9054.6kbits/s speed=0.0425x    frame=  451 fps=1.2 q=28.0 size=   17133kB time=00:00:15.54 bitrate=9030.1kbits/s speed=0.0425x    frame=  452 fps=1.2 q=28.0 size=   17133kB time=00:00:15.58 bitrate=9006.3kbits/s speed=0.0423x    frame=  453 fps=1.2 q=28.0 size=   17133kB time=00:00:15.62 bitrate=8982.1kbits/s speed=0.0423x    frame=  454 fps=1.2 q=28.0 size=   17133kB time=00:00:15.66 bitrate=8958.0kbits/s speed=0.0424x    frame=  455 fps=1.2 q=28.0 size=   17133kB time=00:00:15.70 bitrate=8934.7kbits/s speed=0.0424x    frame=  457 fps=1.2 q=28.0 size=   17133kB time=00:00:15.79 bitrate=8887.1kbits/s speed=0.0425x    frame=  458 fps=1.2 q=28.0 size=   17133kB time=00:00:15.83 bitrate=8864.1kbits/s speed=0.0425x    frame=  459 fps=1.2 q=28.0 size=   17133kB time=00:00:15.87 bitrate=8840.7kbits/s speed=0.0423x    frame=  461 fps=1.2 q=28.0 size=   17133kB time=00:00:15.95 bitrate=8794.7kbits/s speed=0.0424x    frame=  464 fps=1.2 q=28.0 size=   17133kB time=00:00:16.08 bitrate=8726.4kbits/s speed=0.0425x    frame=  465 fps=1.2 q=28.0 size=   17133kB time=00:00:16.12 bitrate=8703.6kbits/s speed=0.0423x    frame=  466 fps=1.2 q=28.0 size=   17133kB time=00:00:16.16 bitrate=8681.0kbits/s speed=0.0424x    frame=  469 fps=1.2 q=28.0 size=   17133kB time=00:00:16.29 bitrate=8614.4kbits/s speed=0.0426x    frame=  470 fps=1.2 q=28.0 size=   17133kB time=00:00:16.33 bitrate=8592.8kbits/s speed=0.0426x    frame=  471 fps=1.2 q=28.0 size=   17133kB time=00:00:16.37 bitrate=8570.8kbits/s speed=0.0423x    frame=  473 fps=1.2 q=28.0 size=   17133kB time=00:00:16.45 bitrate=8527.5kbits/s speed=0.0424x    frame=  474 fps=1.2 q=28.0 size=   17133kB time=00:00:16.50 bitrate=8505.8kbits/s speed=0.0424x    frame=  476 fps=1.2 q=28.0 size=   17133kB time=00:00:16.58 bitrate=8463.3kbits/s speed=0.0424x    frame=  477 fps=1.2 q=28.0 size=   17133kB time=00:00:16.62 bitrate=8441.9kbits/s speed=0.0423x    frame=  480 fps=1.2 q=28.0 size=   17133kB time=00:00:16.75 bitrate=8378.9kbits/s speed=0.0425x    frame=  481 fps=1.2 q=28.0 size=   17133kB time=00:00:16.79 bitrate=8357.9kbits/s speed=0.0425x    frame=  482 fps=1.2 q=28.0 size=   17133kB time=00:00:16.83 bitrate=8337.6kbits/s speed=0.0424x    frame=  483 fps=1.2 q=28.0 size=   17133kB time=00:00:16.87 bitrate=8316.8kbits/s speed=0.0424x    frame=  485 fps=1.2 q=28.0 size=   17133kB time=00:00:16.95 bitrate=8276.1kbits/s speed=0.0424x    frame=  486 fps=1.2 q=28.0 size=   17133kB time=00:00:17.00 bitrate=8255.7kbits/s speed=0.0424x    frame=  487 fps=1.2 q=28.0 size=   17133kB time=00:00:17.04 bitrate=8235.3kbits/s speed=0.0424x    frame=  489 fps=1.2 q=28.0 size=   17133kB time=00:00:17.12 bitrate=8195.4kbits/s speed=0.0425x    frame=  490 fps=1.2 q=28.0 size=   17133kB time=00:00:17.16 bitrate=8175.4kbits/s speed=0.0426x    frame=  491 fps=1.2 q=28.0 size=   17133kB time=00:00:17.20 bitrate=8155.9kbits/s speed=0.0426x    frame=  492 fps=1.2 q=28.0 size=   17133kB time=00:00:17.25 bitrate=8136.0kbits/s speed=0.0426x    frame=  494 fps=1.2 q=28.0 size=   17133kB time=00:00:17.33 bitrate=8097.1kbits/s speed=0.0423x    frame=  496 fps=1.2 q=28.0 size=   17133kB time=00:00:17.41 bitrate=8058.0kbits/s speed=0.0424x    frame=  497 fps=1.2 q=28.0 size=   17133kB time=00:00:17.45 bitrate=8039.1kbits/s speed=0.0424x    frame=  498 fps=1.2 q=28.0 size=   17133kB time=00:00:17.50 bitrate=8019.8kbits/s speed=0.0425x    frame=  500 fps=1.2 q=28.0 size=   17133kB time=00:00:17.58 bitrate=7982.0kbits/s speed=0.0424x    frame=  500 fps=1.1 q=-1.0 Lsize=   24454kB time=00:00:20.70 bitrate=9673.3kbits/s speed=0.0443x    
video:24449kB audio:0kB subtitle:0kB other streams:0kB global headers:0kB muxing overhead: 0.019432%
bench: utime=1770.316s
bench: maxrss=2798136kB
[libx264 @ 0x3b431c0] frame I:3     Avg QP:22.53  size:256495
[libx264 @ 0x3b431c0] frame P:268   Avg QP:29.90  size: 63579
[libx264 @ 0x3b431c0] frame B:229   Avg QP:29.80  size: 31556
[libx264 @ 0x3b431c0] consecutive B-frames: 36.2%  7.6% 18.0% 17.6% 11.0%  9.6%  0.0%  0.0%  0.0%
[libx264 @ 0x3b431c0] mb I  I16..4: 12.8% 78.8%  8.4%
[libx264 @ 0x3b431c0] mb P  I16..4: 18.9% 22.4%  0.4%  P16..4: 30.3%  2.7%  2.0%  0.0%  0.0%    skip:23.3%
[libx264 @ 0x3b431c0] mb B  I16..4:  1.0%  2.1%  0.1%  B16..8: 32.7%  3.3%  0.6%  direct: 1.3%  skip:58.7%  L0:43.4% L1:53.0% BI: 3.6%
[libx264 @ 0x3b431c0] final ratefactor: 25.36
[libx264 @ 0x3b431c0] 8x8 transform intra:55.1% inter:87.2%
[libx264 @ 0x3b431c0] direct mvs  spatial:99.1% temporal:0.9%
[libx264 @ 0x3b431c0] coded y,uvDC,uvAC intra: 16.6% 20.3% 1.6% inter: 6.1% 4.8% 0.1%
[libx264 @ 0x3b431c0] i16 v,h,dc,p: 21% 25% 10% 44%
[libx264 @ 0x3b431c0] i8 v,h,dc,ddl,ddr,vr,hd,vl,hu: 16% 14% 26%  6%  8%  7%  9%  6%  8%
[libx264 @ 0x3b431c0] i4 v,h,dc,ddl,ddr,vr,hd,vl,hu: 14% 16%  7%  7% 13% 11% 14%  7% 11%
[libx264 @ 0x3b431c0] i8c dc,h,v,p: 62% 23% 11%  4%
[libx264 @ 0x3b431c0] Weighted P-Frames: Y:1.5% UV:1.1%
[libx264 @ 0x3b431c0] ref P L0: 63.2% 16.3%  8.9%  3.1%  1.8%  1.4%  1.2%  0.7%  0.6%  0.6%  0.5%  0.4%  0.3%  0.3%  0.3%  0.2%
[libx264 @ 0x3b431c0] ref B L0: 87.6%  6.0%  2.4%  1.0%  0.7%  0.6%  0.4%  0.3%  0.3%  0.2%  0.2%  0.1%  0.1%  0.1%  0.1%
[libx264 @ 0x3b431c0] ref B L1: 98.2%  1.8%
[libx264 @ 0x3b431c0] kb/s:9613.42
